<mxfile host="Electron" modified="2024-06-11T14:50:57.438Z" agent="Mozilla/5.0 (Windows NT 10.0; Win64; x64) AppleWebKit/537.36 (KHTML, like Gecko) draw.io/24.5.1 Chrome/124.0.6367.207 Electron/30.0.6 Safari/537.36" etag="FrFf3LjBNSdJsNbMpFAH" version="24.5.1" type="device">
  <diagram name="Page-1" id="5S9-nFrepRcUS9thQjQj">
    <mxGraphModel dx="1235" dy="715" grid="1" gridSize="10" guides="1" tooltips="1" connect="1" arrows="1" fold="1" page="1" pageScale="1" pageWidth="1100" pageHeight="850" math="0" shadow="0">
      <root>
        <mxCell id="0" />
        <mxCell id="1" parent="0" />
        <mxCell id="aTA8saY3pps6utUneQP9-1" value="&lt;font color=&quot;#007fff&quot; style=&quot;font-size: 16px;&quot;&gt;&lt;b&gt;Project scoping&lt;/b&gt;&lt;/font&gt;" style="rounded=1;whiteSpace=wrap;html=1;shadow=1;strokeWidth=2;" vertex="1" parent="1">
          <mxGeometry x="440" y="200" width="160" height="80" as="geometry" />
        </mxCell>
        <mxCell id="aTA8saY3pps6utUneQP9-3" value="&lt;b&gt;&lt;font color=&quot;#007fff&quot; style=&quot;font-size: 16px;&quot;&gt;Business analysis&lt;/font&gt;&lt;/b&gt;" style="rounded=1;whiteSpace=wrap;html=1;shadow=1;strokeWidth=2;" vertex="1" parent="1">
          <mxGeometry x="270" y="280" width="160" height="80" as="geometry" />
        </mxCell>
        <mxCell id="aTA8saY3pps6utUneQP9-4" value="&lt;b&gt;&lt;font color=&quot;#007fff&quot; style=&quot;font-size: 16px;&quot;&gt;Data engineering&lt;/font&gt;&lt;/b&gt;" style="rounded=1;whiteSpace=wrap;html=1;shadow=1;strokeWidth=2;" vertex="1" parent="1">
          <mxGeometry x="610" y="280" width="160" height="80" as="geometry" />
        </mxCell>
        <mxCell id="aTA8saY3pps6utUneQP9-5" value="&lt;font size=&quot;1&quot; color=&quot;#007fff&quot;&gt;&lt;b style=&quot;font-size: 16px;&quot;&gt;Monitoring&lt;/b&gt;&lt;/font&gt;" style="rounded=1;whiteSpace=wrap;html=1;shadow=1;strokeWidth=2;" vertex="1" parent="1">
          <mxGeometry x="270" y="400" width="160" height="80" as="geometry" />
        </mxCell>
        <mxCell id="aTA8saY3pps6utUneQP9-6" value="&lt;b&gt;&lt;font color=&quot;#007fff&quot; style=&quot;font-size: 16px;&quot;&gt;ML model development&lt;/font&gt;&lt;/b&gt;" style="rounded=1;whiteSpace=wrap;html=1;shadow=1;strokeWidth=2;" vertex="1" parent="1">
          <mxGeometry x="610" y="400" width="160" height="80" as="geometry" />
        </mxCell>
        <mxCell id="aTA8saY3pps6utUneQP9-7" value="&lt;font color=&quot;#007fff&quot; style=&quot;font-size: 16px;&quot;&gt;&lt;b&gt;Deployment&lt;/b&gt;&lt;/font&gt;" style="rounded=1;whiteSpace=wrap;html=1;shadow=1;strokeWidth=2;" vertex="1" parent="1">
          <mxGeometry x="440" y="480" width="160" height="80" as="geometry" />
        </mxCell>
        <mxCell id="aTA8saY3pps6utUneQP9-11" value="" style="edgeStyle=segmentEdgeStyle;endArrow=classic;html=1;curved=0;rounded=0;endSize=8;startSize=8;entryX=0.5;entryY=1;entryDx=0;entryDy=0;exitX=0;exitY=0.5;exitDx=0;exitDy=0;shadow=1;" edge="1" parent="1" source="aTA8saY3pps6utUneQP9-7" target="aTA8saY3pps6utUneQP9-5">
          <mxGeometry width="50" height="50" relative="1" as="geometry">
            <mxPoint x="580" y="560" as="sourcePoint" />
            <mxPoint x="670" y="520" as="targetPoint" />
            <Array as="points">
              <mxPoint x="350" y="520" />
            </Array>
          </mxGeometry>
        </mxCell>
        <mxCell id="aTA8saY3pps6utUneQP9-12" value="" style="endArrow=classic;html=1;rounded=0;exitX=0.5;exitY=1;exitDx=0;exitDy=0;entryX=1;entryY=0.5;entryDx=0;entryDy=0;shadow=1;" edge="1" parent="1" source="aTA8saY3pps6utUneQP9-6" target="aTA8saY3pps6utUneQP9-7">
          <mxGeometry width="50" height="50" relative="1" as="geometry">
            <mxPoint x="410" y="500" as="sourcePoint" />
            <mxPoint x="680" y="550" as="targetPoint" />
            <Array as="points">
              <mxPoint x="690" y="520" />
            </Array>
          </mxGeometry>
        </mxCell>
        <mxCell id="aTA8saY3pps6utUneQP9-13" value="" style="endArrow=classic;html=1;rounded=0;exitX=0.5;exitY=0;exitDx=0;exitDy=0;shadow=1;" edge="1" parent="1" source="aTA8saY3pps6utUneQP9-5" target="aTA8saY3pps6utUneQP9-3">
          <mxGeometry width="50" height="50" relative="1" as="geometry">
            <mxPoint x="410" y="460" as="sourcePoint" />
            <mxPoint x="460" y="410" as="targetPoint" />
          </mxGeometry>
        </mxCell>
        <mxCell id="aTA8saY3pps6utUneQP9-14" value="" style="endArrow=classic;html=1;rounded=0;exitX=0.5;exitY=0;exitDx=0;exitDy=0;entryX=0;entryY=0.5;entryDx=0;entryDy=0;shadow=1;" edge="1" parent="1" source="aTA8saY3pps6utUneQP9-3" target="aTA8saY3pps6utUneQP9-1">
          <mxGeometry width="50" height="50" relative="1" as="geometry">
            <mxPoint x="410" y="380" as="sourcePoint" />
            <mxPoint x="460" y="330" as="targetPoint" />
            <Array as="points">
              <mxPoint x="350" y="240" />
            </Array>
          </mxGeometry>
        </mxCell>
        <mxCell id="aTA8saY3pps6utUneQP9-15" value="" style="endArrow=classic;html=1;rounded=0;exitX=1;exitY=0.5;exitDx=0;exitDy=0;shadow=1;" edge="1" parent="1" source="aTA8saY3pps6utUneQP9-1">
          <mxGeometry width="50" height="50" relative="1" as="geometry">
            <mxPoint x="630" y="380" as="sourcePoint" />
            <mxPoint x="680" y="280" as="targetPoint" />
            <Array as="points">
              <mxPoint x="680" y="240" />
            </Array>
          </mxGeometry>
        </mxCell>
        <mxCell id="aTA8saY3pps6utUneQP9-16" value="" style="endArrow=classic;html=1;rounded=0;exitX=0.5;exitY=1;exitDx=0;exitDy=0;entryX=0.5;entryY=0;entryDx=0;entryDy=0;shadow=1;" edge="1" parent="1" source="aTA8saY3pps6utUneQP9-4" target="aTA8saY3pps6utUneQP9-6">
          <mxGeometry width="50" height="50" relative="1" as="geometry">
            <mxPoint x="610" y="420" as="sourcePoint" />
            <mxPoint x="660" y="370" as="targetPoint" />
          </mxGeometry>
        </mxCell>
        <mxCell id="aTA8saY3pps6utUneQP9-17" value="" style="endArrow=classic;startArrow=classic;html=1;rounded=0;exitX=1;exitY=0.5;exitDx=0;exitDy=0;entryX=0;entryY=0.5;entryDx=0;entryDy=0;dashed=1;dashPattern=8 8;shadow=1;" edge="1" parent="1" source="aTA8saY3pps6utUneQP9-5" target="aTA8saY3pps6utUneQP9-6">
          <mxGeometry width="50" height="50" relative="1" as="geometry">
            <mxPoint x="510" y="420" as="sourcePoint" />
            <mxPoint x="560" y="370" as="targetPoint" />
          </mxGeometry>
        </mxCell>
        <mxCell id="aTA8saY3pps6utUneQP9-18" value="" style="endArrow=classic;startArrow=classic;html=1;rounded=0;exitX=1;exitY=0.5;exitDx=0;exitDy=0;entryX=0;entryY=0.5;entryDx=0;entryDy=0;dashed=1;dashPattern=8 8;shadow=1;" edge="1" parent="1">
          <mxGeometry width="50" height="50" relative="1" as="geometry">
            <mxPoint x="430" y="319.8" as="sourcePoint" />
            <mxPoint x="610" y="319.8" as="targetPoint" />
          </mxGeometry>
        </mxCell>
        <mxCell id="aTA8saY3pps6utUneQP9-19" value="" style="endArrow=classic;startArrow=classic;html=1;rounded=0;exitX=1.018;exitY=0.228;exitDx=0;exitDy=0;entryX=0;entryY=0.75;entryDx=0;entryDy=0;exitPerimeter=0;dashed=1;dashPattern=8 8;shadow=1;" edge="1" parent="1" source="aTA8saY3pps6utUneQP9-5" target="aTA8saY3pps6utUneQP9-4">
          <mxGeometry width="50" height="50" relative="1" as="geometry">
            <mxPoint x="440" y="329.8" as="sourcePoint" />
            <mxPoint x="620" y="329.8" as="targetPoint" />
          </mxGeometry>
        </mxCell>
        <mxCell id="aTA8saY3pps6utUneQP9-20" value="" style="endArrow=classic;startArrow=classic;html=1;rounded=0;exitX=1;exitY=0.75;exitDx=0;exitDy=0;entryX=0;entryY=0.25;entryDx=0;entryDy=0;dashed=1;dashPattern=8 8;shadow=1;" edge="1" parent="1" source="aTA8saY3pps6utUneQP9-3" target="aTA8saY3pps6utUneQP9-6">
          <mxGeometry width="50" height="50" relative="1" as="geometry">
            <mxPoint x="443" y="428" as="sourcePoint" />
            <mxPoint x="620" y="350" as="targetPoint" />
          </mxGeometry>
        </mxCell>
      </root>
    </mxGraphModel>
  </diagram>
</mxfile>
